<svg width="141" height="37" viewBox="0 0 141 37" fill="none" xmlns="http://www.w3.org/2000/svg">
<rect y="21.2549" width="7.79005" height="7.87234" rx="3.89503" fill="#302F2D"/>
<rect x="19.4751" y="21.2549" width="7.79005" height="7.87234" rx="3.89503" fill="#302F2D"/>
<rect x="7.01099" y="13.3828" width="13.2431" height="7.87234" rx="3.93617" fill="#302F2D"/>
<path d="M33.3259 17.5528C33.3259 16.3656 33.6095 15.2808 34.1766 14.2984C34.764 13.2954 35.5438 12.5074 36.516 11.9343C37.5084 11.3407 38.592 11.0439 39.7667 11.0439H44.7796C45.9544 11.0439 47.0279 11.3407 48.0001 11.9343C48.9925 12.5074 49.7723 13.2954 50.3394 14.2984C50.9268 15.2808 51.2205 16.3656 51.2205 17.5528V29.1275H45.6607V17.5528C45.6607 17.3072 45.5696 17.1025 45.3873 16.9388C45.2252 16.7545 45.0227 16.6624 44.7796 16.6624H39.7667C39.5237 16.6624 39.311 16.7545 39.1287 16.9388C38.9667 17.1025 38.8857 17.3072 38.8857 17.5528V29.1275H33.3259V17.5528Z" fill="#302F2D"/>
<path d="M58.8737 23.509H63.8866C64.1296 23.509 64.3322 23.4271 64.4942 23.2634C64.6765 23.0792 64.7676 22.8643 64.7676 22.6186V17.5528C64.7676 17.3072 64.6765 17.1025 64.4942 16.9388C64.3322 16.7545 64.1296 16.6624 63.8866 16.6624H58.8737C58.6306 16.6624 58.418 16.7545 58.2357 16.9388C58.0736 17.1025 57.9926 17.3072 57.9926 17.5528V32.5661H52.4329V17.5528C52.4329 16.3656 52.7164 15.2808 53.2835 14.2984C53.8709 13.2954 54.6507 12.5074 55.6229 11.9343C56.6153 11.3407 57.6989 11.0439 58.8737 11.0439H63.8866C65.0613 11.0439 66.1348 11.3407 67.107 11.9343C68.0994 12.5074 68.8792 13.2954 69.4463 14.2984C70.0337 15.2808 70.3274 16.3656 70.3274 17.5528V22.6186C70.3274 23.8058 70.0337 24.9008 69.4463 25.9038C68.8792 26.8862 68.0994 27.6743 67.107 28.2678C66.1348 28.8409 65.0613 29.1275 63.8866 29.1275H58.8737V23.509Z" fill="#302F2D"/>
<path d="M82.9638 11.0439C84.1386 11.0439 85.2121 11.3407 86.1843 11.9343C87.1767 12.5074 87.9565 13.2954 88.5236 14.2984C89.111 15.2808 89.4047 16.3656 89.4047 17.5528V22.6186C89.4047 23.8058 89.111 24.9008 88.5236 25.9038C87.9565 26.8862 87.1767 27.6743 86.1843 28.2678C85.2121 28.8409 84.1386 29.1275 82.9638 29.1275H77.9813C76.8066 29.1275 75.723 28.8409 74.7305 28.2678C73.7583 27.6743 72.9786 26.8862 72.3912 25.9038C71.8038 24.9008 71.5101 23.8058 71.5101 22.6186V17.5528C71.5101 16.3656 71.8038 15.2808 72.3912 14.2984C72.9786 13.2954 73.7583 12.5074 74.7305 11.9343C75.723 11.3407 76.8066 11.0439 77.9813 11.0439H82.9638ZM77.9813 16.6624C77.7383 16.6624 77.5256 16.7545 77.3433 16.9388C77.161 17.1025 77.0699 17.3072 77.0699 17.5528V22.6186C77.0699 22.8643 77.161 23.0792 77.3433 23.2634C77.5256 23.4271 77.7383 23.509 77.9813 23.509H82.9638C83.2069 23.509 83.4094 23.4271 83.5715 23.2634C83.7538 23.0792 83.8449 22.8643 83.8449 22.6186V17.5528C83.8449 17.3072 83.7538 17.1025 83.5715 16.9388C83.4094 16.7545 83.2069 16.6624 82.9638 16.6624H77.9813Z" fill="#302F2D"/>
<path d="M97.0883 29.1275C95.9135 29.1275 94.8299 28.8409 93.8375 28.2678C92.845 27.6743 92.0551 26.8862 91.4677 25.9038C90.9006 24.9008 90.6171 23.8058 90.6171 22.6186V17.5528C90.6171 16.3656 90.9006 15.2808 91.4677 14.2984C92.0551 13.2954 92.845 12.5074 93.8375 11.9343C94.8299 11.3407 95.9135 11.0439 97.0883 11.0439H105.747V16.6624H97.0883C96.825 16.6624 96.6022 16.7545 96.4199 16.9388C96.2578 17.1025 96.1768 17.3072 96.1768 17.5528V22.6186C96.1768 22.8643 96.2578 23.0792 96.4199 23.2634C96.6022 23.4271 96.825 23.509 97.0883 23.509H105.747V29.1275H97.0883Z" fill="#302F2D"/>
<path d="M106.782 11.0439H121.456V16.6624H116.899V29.1275H111.339V16.6624H106.782V11.0439Z" fill="#302F2D"/>
<path d="M133.906 11.0439C135.081 11.0439 136.154 11.3407 137.126 11.9343C138.119 12.5074 138.898 13.2954 139.466 14.2984C140.053 15.2808 140.347 16.3656 140.347 17.5528V22.6186C140.347 23.8058 140.053 24.9008 139.466 25.9038C138.898 26.8862 138.119 27.6743 137.126 28.2678C136.154 28.8409 135.081 29.1275 133.906 29.1275H128.923C127.749 29.1275 126.665 28.8409 125.672 28.2678C124.7 27.6743 123.92 26.8862 123.333 25.9038C122.746 24.9008 122.452 23.8058 122.452 22.6186V17.5528C122.452 16.3656 122.746 15.2808 123.333 14.2984C123.92 13.2954 124.7 12.5074 125.672 11.9343C126.665 11.3407 127.749 11.0439 128.923 11.0439H133.906ZM128.923 16.6624C128.68 16.6624 128.468 16.7545 128.285 16.9388C128.103 17.1025 128.012 17.3072 128.012 17.5528V22.6186C128.012 22.8643 128.103 23.0792 128.285 23.2634C128.468 23.4271 128.68 23.509 128.923 23.509H133.906C134.149 23.509 134.351 23.4271 134.513 23.2634C134.696 23.0792 134.787 22.8643 134.787 22.6186V17.5528C134.787 17.3072 134.696 17.1025 134.513 16.9388C134.351 16.7545 134.149 16.6624 133.906 16.6624H128.923Z" fill="#302F2D"/>
</svg>
